<svg xmlns="http://www.w3.org/2000/svg" width="238.797" height="321.857" viewBox="0 0 238.797 321.857"><defs><style>.a{fill:#dad8db;}.b{fill:#0455bf;}.c{fill:#fff;}.d{fill:#eceaec;}.e{fill:#ffe07d;}.f{fill:#ff8086;}.g{fill:#6f6571;}.h{fill:#252759;}.i{fill:#faf5dc;}.j{fill:#ffd064;}.k{fill:#e5646e;}</style></defs><path class="a" d="M248.924,0H238.542a15.591,15.591,0,0,0-15.574,15.574V25.956H233.35V15.574a5.2,5.2,0,0,1,5.191-5.191h10.382a5.2,5.2,0,0,1,5.191,5.191V25.956H264.5V15.574A15.591,15.591,0,0,0,248.924,0Z" transform="translate(-124.335 0)"/><path class="b" d="M286.425,49.548H89.158a20.672,20.672,0,0,0-10.387,2.78L72.333,70.313V315.092A20.765,20.765,0,0,0,93.1,335.857H286.425l17.986-5.981a20.672,20.672,0,0,0,2.779-10.384V70.313a20.765,20.765,0,0,0-20.765-20.765Z" transform="translate(-68.393 -18.401)"/><path class="c" d="M294.24,316.187H112.546A5.191,5.191,0,0,1,107.355,311V87.772a5.191,5.191,0,0,1,5.191-5.191H294.24a5.191,5.191,0,0,1,5.191,5.191V311A5.191,5.191,0,0,1,294.24,316.187Z" transform="translate(-81.399 -30.668)"/><path class="d" d="M272.495,33.032H194.941a5.506,5.506,0,0,0-5.506,5.506v3.31a16.519,16.519,0,0,0,16.518,16.518h55.529l15.342-4.571A16.478,16.478,0,0,0,278,47.661V38.538a5.507,5.507,0,0,0-5.506-5.506Z" transform="translate(-111.881 -12.267)"/><path class="e" d="M328.438,159.027H302.482a5.191,5.191,0,0,1,0-10.382h25.956a5.191,5.191,0,0,1,0,10.382Z" transform="translate(-151.936 -55.203)"/><path class="f" d="M338.821,200.318H302.482a5.191,5.191,0,0,1,0-10.382h36.338a5.191,5.191,0,0,1,0,10.382Z" transform="translate(-151.936 -70.537)"/><path class="g" d="M338.821,241.608H302.482a5.191,5.191,0,0,1,0-10.382h36.338a5.191,5.191,0,0,1,0,10.382Z" transform="translate(-151.936 -85.871)"/><path class="g" d="M216.131,315.931h-62.3a5.191,5.191,0,1,1,0-10.382h62.3a5.191,5.191,0,1,1,0,10.382Z" transform="translate(-96.733 -113.473)"/><path class="g" d="M231.7,357.221H153.836a5.191,5.191,0,0,1,0-10.382H231.7a5.191,5.191,0,0,1,0,10.382Z" transform="translate(-96.733 -128.807)"/><path class="g" d="M247.278,398.511H153.836a5.191,5.191,0,1,1,0-10.382h93.442a5.191,5.191,0,1,1,0,10.382Z" transform="translate(-96.733 -144.141)"/><path class="f" d="M309.8,325.371a5.174,5.174,0,0,1-3.671-1.521l-15.574-15.574a5.19,5.19,0,0,1,7.34-7.34l11.9,11.9,22.286-22.286a5.191,5.191,0,1,1,7.34,7.34L313.467,323.85a5.173,5.173,0,0,1-3.67,1.521Z" transform="translate(-148.869 -107.339)"/><path class="h" d="M103.372,331.523A26.925,26.925,0,0,1,76.447,304.6V53.984A20.826,20.826,0,0,0,66.065,71.96V321.14A20.765,20.765,0,0,0,86.83,341.9H284.1a20.839,20.839,0,0,0,17.984-10.382H103.372Z" transform="translate(-66.065 -20.048)"/><path class="i" d="M130.244,311a20.765,20.765,0,0,1-20.765-20.765V82.581h-5.191A5.191,5.191,0,0,0,99.1,87.772V316.187a5.191,5.191,0,0,0,5.191,5.191H291.173a5.191,5.191,0,0,0,5.191-5.191V311H130.244Z" transform="translate(-78.332 -30.668)"/><path class="a" d="M192.06,43.414V33.032h-4.876a5.506,5.506,0,0,0-5.506,5.506v9.123A16.518,16.518,0,0,0,198.2,64.179H258.6A16.547,16.547,0,0,0,273.949,53.8H202.443A10.382,10.382,0,0,1,192.06,43.414Z" transform="translate(-109.001 -12.267)"/><path class="j" d="M0,0H83.06V10.382H0Z" transform="translate(121.31 98.898) rotate(135)"/><circle class="e" cx="5.191" cy="5.191" r="5.191" transform="translate(112.426 90.033)"/><circle class="e" cx="5.191" cy="5.191" r="5.191" transform="translate(53.694 148.765)"/><path class="j" d="M0,0H83.06V10.382H0Z" transform="translate(62.559 91.53) rotate(45)"/><circle class="e" cx="5.191" cy="5.191" r="5.191" transform="translate(53.694 90.033)"/><circle class="e" cx="5.191" cy="5.191" r="5.191" transform="translate(112.426 148.765)"/><path class="j" d="M0,0H83.06V10.382H0Z" transform="translate(93.442 83.06) rotate(90)"/><circle class="e" cx="5.191" cy="5.191" r="5.191" transform="translate(83.06 77.869)"/><circle class="e" cx="5.191" cy="5.191" r="5.191" transform="translate(83.06 160.929)"/><path class="j" d="M140.387,189.935h83.06v10.382h-83.06Z" transform="translate(-93.666 -70.537)"/><path class="f" d="M218.685,182.86a25.96,25.96,0,0,0-40.012-21.824c-7.16,4.621-9.172,12.669-9.172,21.825,0,14.335,8.894,24.447,23.229,24.447,9.164,0,17.219-3.24,21.838-10.412a25.845,25.845,0,0,0,4.118-14.036Z" transform="translate(-104.478 -58.27)"/><path class="k" d="M198.9,203.47a25.969,25.969,0,0,1-21.843-39.994,25.959,25.959,0,1,0,35.894,35.86A25.9,25.9,0,0,1,198.9,203.47Z" transform="translate(-102.867 -60.711)"/><g transform="translate(41.53 114.856)"><path class="e" d="M217.477,193.092a5.191,5.191,0,0,1-.045-10.382h.046a5.191,5.191,0,1,1,0,10.382Z" transform="translate(-161.89 -182.71)"/><path class="e" d="M203.365,214.253a5.191,5.191,0,0,1-.04-10.382h.041a5.191,5.191,0,1,1,0,10.382Z" transform="translate(-156.649 -190.569)"/><path class="e" d="M189.257,193.092a5.191,5.191,0,1,1-.045-10.382h.046a5.191,5.191,0,1,1,0,10.382Z" transform="translate(-151.408 -182.71)"/><circle class="e" cx="5.191" cy="5.191" r="5.191" transform="translate(0 4.542)"/><circle class="e" cx="5.191" cy="5.191" r="5.191" transform="translate(83.06 4.542)"/></g></svg>