<svg id="icons" enable-background="new 0 0 64 64" height="512" viewBox="0 0 64 64" width="512" xmlns="http://www.w3.org/2000/svg">
	<path d="m60 35.995v4.01h-4.01v-4.01h.01z" fill="#e6e9ed" />
	<path d="m60 40.005v12h-56v-12h13.99 38z" fill="#f7c292" />
	<path d="m14.99 34.005v1.99h-10.99v-5.99h6.99v-.01c2.21 0 4 1.79 4 4.01z" fill="#ccd1d9" />
	<path d="m17.99 35.995v4.01h-13.99v-4.01h10.99z" fill="#e6e9ed" />
	<path d="m55.99 39.005v2 4c0 .55-.45 1-1 1h-36c-.55 0-1-.45-1-1v-4c0-.55 0-1.45 0-2v-3.01c0-.55.45-1 1-1h36c.55 0 1 .45 1 1z" fill="#ed5565" />
	<path d="m21 34.995h32v8h-32z" fill="#da4453" />
	<path d="m35 6.005c5.53 0 10 4.47 10 10 0 5.521-4.47 10-10 10-5.52 0-10-4.479-10-10 0-5.53 4.48-10 10-10z" fill="#ed5565" />
	<path d="m62 31.005c.55 0 1 .45 1 1v24.99c0 .55-.45 1-1 1h-1c-.55 0-1-.45-1-1v-3.99c0-.55 0-1.45 0-2v-10c0-.55 0-1.45 0-2v-2.01c0-.55 0-1.45 0-2v-2.99c0-.55.45-1 1-1z" fill="#ffd2a6" />
	<path d="m4 29.005v2 3.99 2 2.01 2 10 2 3.99c0 .55-.45 1-1 1h-1c-.55 0-1-.45-1-1v-39.01c0-.55.45-1 1-1h1c.55 0 1 .45 1 1z" fill="#ffd2a6" />
	<g fill="#e6e9ed">
		<path d="m34.998 21c-.553 0-1-.447-1-1v-8c0-.553.447-1 1-1s1 .447 1 1v8c0 .553-.447 1-1 1z" />
		<path d="m38.998 17h-8c-.553 0-1-.447-1-1s.447-1 1-1h8c.553 0 1 .447 1 1s-.447 1-1 1z" />
	</g>
</svg>
