<svg xmlns="http://www.w3.org/2000/svg" width="24" height="24" viewBox="0 0 24 24">
  <path id="FontAwsome_envelope-square_" data-name="FontAwsome (envelope-square)" d="M21.429,32H2.571A2.571,2.571,0,0,0,0,34.571V53.429A2.571,2.571,0,0,0,2.571,56H21.429A2.571,2.571,0,0,0,24,53.429V34.571A2.571,2.571,0,0,0,21.429,32ZM9.542,44.327c-4.858-3.526-4.809-3.535-6.113-4.55V38.429a1.286,1.286,0,0,1,1.286-1.286H19.286a1.286,1.286,0,0,1,1.286,1.286v1.348c-1.306,1.016-1.255,1.025-6.113,4.55-.562.41-1.682,1.4-2.458,1.387C11.223,45.726,10.105,44.738,9.542,44.327Zm11.029-2.375v7.619a1.286,1.286,0,0,1-1.286,1.286H4.714a1.286,1.286,0,0,1-1.286-1.286V41.952c.748.578,1.785,1.352,5.106,3.761.759.554,2.034,1.722,3.466,1.715s2.734-1.181,3.467-1.716C18.786,43.3,19.824,42.53,20.571,41.952Z" transform="translate(0 -32)"/>
</svg>
