<svg xmlns="http://www.w3.org/2000/svg" width="24" height="24" viewBox="0 0 24 24">
  <path id="FontAwsome_twitter-square_" data-name="FontAwsome (twitter-square)" d="M21.429,32H2.571A2.572,2.572,0,0,0,0,34.571V53.429A2.572,2.572,0,0,0,2.571,56H21.429A2.572,2.572,0,0,0,24,53.429V34.571A2.572,2.572,0,0,0,21.429,32Zm-2.62,8.507c.011.15.011.305.011.455a9.928,9.928,0,0,1-10,10,9.95,9.95,0,0,1-5.395-1.575,7.4,7.4,0,0,0,.846.043,7.044,7.044,0,0,0,4.361-1.5,3.518,3.518,0,0,1-3.284-2.437,3.787,3.787,0,0,0,1.586-.064,3.514,3.514,0,0,1-2.812-3.45v-.043a3.511,3.511,0,0,0,1.586.445,3.506,3.506,0,0,1-1.564-2.925,3.47,3.47,0,0,1,.477-1.773,9.976,9.976,0,0,0,7.243,3.675,3.521,3.521,0,0,1,5.995-3.209,6.885,6.885,0,0,0,2.229-.846,3.5,3.5,0,0,1-1.543,1.934,6.992,6.992,0,0,0,2.025-.546A7.4,7.4,0,0,1,18.809,40.507Z" transform="translate(0 -32)"/>
</svg>
